TITLE ""
FILE "P1Q_t_1520-1529.mp3" MP3
  TRACK 01 AUDIO
    TITLE "P1Q_t_1520-1529_01"
    INDEX 01 00:00:00
  TRACK 02 AUDIO
    TITLE "P1Q_t_1520-1529_02"
    INDEX 01 00:01:23
  TRACK 03 AUDIO
    TITLE "P1Q_t_1520-1529_03"
    INDEX 01 00:01:43
  TRACK 04 AUDIO
    TITLE "P1Q_t_1520-1529_04"
    INDEX 01 00:03:60
  TRACK 05 AUDIO
    TITLE "P1Q_t_1520-1529_05"
    INDEX 01 00:04:04
  TRACK 06 AUDIO
    TITLE "P1Q_t_1520-1529_06"
    INDEX 01 00:08:39
  TRACK 07 AUDIO
    TITLE "P1Q_t_1520-1529_07"
    INDEX 01 00:09:09
  TRACK 08 AUDIO
    TITLE "P1Q_t_1520-1529_08"
    INDEX 01 00:10:26
  TRACK 09 AUDIO
    TITLE "P1Q_t_1520-1529_09"
    INDEX 01 00:10:48
  TRACK 10 AUDIO
    TITLE "P1Q_t_1520-1529_10"
    INDEX 01 00:12:66
  TRACK 11 AUDIO
    TITLE "P1Q_t_1520-1529_11"
    INDEX 01 00:13:09
  TRACK 12 AUDIO
    TITLE "P1Q_t_1520-1529_12"
    INDEX 01 00:16:66
  TRACK 13 AUDIO
    TITLE "P1Q_t_1520-1529_13"
    INDEX 01 00:17:38
  TRACK 14 AUDIO
    TITLE "P1Q_t_1520-1529_14"
    INDEX 01 00:18:57
  TRACK 15 AUDIO
    TITLE "P1Q_t_1520-1529_15"
    INDEX 01 00:19:02
  TRACK 16 AUDIO
    TITLE "P1Q_t_1520-1529_16"
    INDEX 01 00:20:25
  TRACK 17 AUDIO
    TITLE "P1Q_t_1520-1529_17"
    INDEX 01 00:20:44
  TRACK 18 AUDIO
    TITLE "P1Q_t_1520-1529_18"
    INDEX 01 00:24:34
  TRACK 19 AUDIO
    TITLE "P1Q_t_1520-1529_19"
    INDEX 01 00:25:06
  TRACK 20 AUDIO
    TITLE "P1Q_t_1520-1529_20"
    INDEX 01 00:26:16
  TRACK 21 AUDIO
    TITLE "P1Q_t_1520-1529_21"
    INDEX 01 00:26:37
  TRACK 22 AUDIO
    TITLE "P1Q_t_1520-1529_22"
    INDEX 01 00:29:55
  TRACK 23 AUDIO
    TITLE "P1Q_t_1520-1529_23"
    INDEX 01 00:29:75
  TRACK 24 AUDIO
    TITLE "P1Q_t_1520-1529_24"
    INDEX 01 00:34:37
  TRACK 25 AUDIO
    TITLE "P1Q_t_1520-1529_25"
    INDEX 01 00:35:11
  TRACK 26 AUDIO
    TITLE "P1Q_t_1520-1529_26"
    INDEX 01 00:36:12
  TRACK 27 AUDIO
    TITLE "P1Q_t_1520-1529_27"
    INDEX 01 00:36:34
  TRACK 28 AUDIO
    TITLE "P1Q_t_1520-1529_28"
    INDEX 01 00:40:20
  TRACK 29 AUDIO
    TITLE "P1Q_t_1520-1529_29"
    INDEX 01 00:40:39
  TRACK 30 AUDIO
    TITLE "P1Q_t_1520-1529_30"
    INDEX 01 00:44:37
  TRACK 31 AUDIO
    TITLE "P1Q_t_1520-1529_31"
    INDEX 01 00:45:07
  TRACK 32 AUDIO
    TITLE "P1Q_t_1520-1529_32"
    INDEX 01 00:46:20
  TRACK 33 AUDIO
    TITLE "P1Q_t_1520-1529_33"
    INDEX 01 00:46:42
  TRACK 34 AUDIO
    TITLE "P1Q_t_1520-1529_34"
    INDEX 01 00:48:62
  TRACK 35 AUDIO
    TITLE "P1Q_t_1520-1529_35"
    INDEX 01 00:49:07
  TRACK 36 AUDIO
    TITLE "P1Q_t_1520-1529_36"
    INDEX 01 00:53:22
  TRACK 37 AUDIO
    TITLE "P1Q_t_1520-1529_37"
    INDEX 01 00:53:67
  TRACK 38 AUDIO
    TITLE "P1Q_t_1520-1529_38"
    INDEX 01 00:55:05
  TRACK 39 AUDIO
    TITLE "P1Q_t_1520-1529_39"
    INDEX 01 00:55:25
  TRACK 40 AUDIO
    TITLE "P1Q_t_1520-1529_40"
    INDEX 01 00:59:40
  TRACK 41 AUDIO
    TITLE "P1Q_t_1520-1529_41"
    INDEX 01 00:59:60
  TRACK 42 AUDIO
    TITLE "P1Q_t_1520-1529_42"
    INDEX 01 01:04:12
  TRACK 43 AUDIO
    TITLE "P1Q_t_1520-1529_43"
    INDEX 01 01:04:57
  TRACK 44 AUDIO
    TITLE "P1Q_t_1520-1529_44"
    INDEX 01 01:06:03
  TRACK 45 AUDIO
    TITLE "P1Q_t_1520-1529_45"
    INDEX 01 01:06:23
  TRACK 46 AUDIO
    TITLE "P1Q_t_1520-1529_46"
    INDEX 01 01:09:29
  TRACK 47 AUDIO
    TITLE "P1Q_t_1520-1529_47"
    INDEX 01 01:09:51
  TRACK 48 AUDIO
    TITLE "P1Q_t_1520-1529_48"
    INDEX 01 01:14:69
  TRACK 49 AUDIO
    TITLE "P1Q_t_1520-1529_49"
    INDEX 01 01:15:39
  TRACK 50 AUDIO
    TITLE "P1Q_t_1520-1529_50"
    INDEX 01 01:16:70
  TRACK 51 AUDIO
    TITLE "P1Q_t_1520-1529_51"
    INDEX 01 01:17:15
  TRACK 52 AUDIO
    TITLE "P1Q_t_1520-1529_52"
    INDEX 01 01:21:48
  TRACK 53 AUDIO
    TITLE "P1Q_t_1520-1529_53"
    INDEX 01 01:21:70
  TRACK 54 AUDIO
    TITLE "P1Q_t_1520-1529_54"
    INDEX 01 01:26:20
  TRACK 55 AUDIO
    TITLE "P1Q_t_1520-1529_55"
    INDEX 01 01:26:65
  TRACK 56 AUDIO
    TITLE "P1Q_t_1520-1529_56"
    INDEX 01 01:28:01
  TRACK 57 AUDIO
    TITLE "P1Q_t_1520-1529_57"
    INDEX 01 01:28:19
  TRACK 58 AUDIO
    TITLE "P1Q_t_1520-1529_58"
    INDEX 01 01:32:14
  TRACK 59 AUDIO
    TITLE "P1Q_t_1520-1529_59"
    INDEX 01 01:32:34
  TRACK 60 AUDIO
    TITLE "P1Q_t_1520-1529_60"
    INDEX 01 01:37:10
